<svg width="30" height="30" viewBox="0 0 30 30" fill="none" xmlns="http://www.w3.org/2000/svg">
<path fill-rule="evenodd" clip-rule="evenodd" d="M15.0269 0.112427C6.75907 0.112427 0.0546875 6.92987 0.0546875 15.3403C0.0546875 22.0684 4.34469 27.7766 10.2936 29.7902C11.0419 29.9311 11.3166 29.4598 11.3166 29.0576C11.3166 28.6945 11.3027 27.4949 11.2963 26.2225C7.13097 27.1436 6.25204 24.4257 6.25204 24.4257C5.57097 22.6656 4.58965 22.1976 4.58965 22.1976C3.23122 21.2524 4.69204 21.2718 4.69204 21.2718C6.19551 21.379 6.98717 22.8411 6.98717 22.8411C8.32254 25.1691 10.4897 24.4961 11.3441 24.107C11.4785 23.123 11.8665 22.4507 12.2947 22.0707C8.96915 21.6856 5.47328 20.3799 5.47328 14.5449C5.47328 12.8824 6.05816 11.5239 7.01593 10.4575C6.86047 10.0737 6.34799 8.5251 7.16097 6.42754C7.16097 6.42754 8.41824 6.01827 11.2794 7.98848C12.4737 7.65108 13.7545 7.48187 15.0269 7.47607C16.2993 7.48187 17.5811 7.65108 18.7777 7.98848C21.6353 6.01827 22.8909 6.42754 22.8909 6.42754C23.7058 8.5251 23.1931 10.0737 23.0377 10.4575C23.9977 11.5239 24.5786 12.8824 24.5786 14.5449C24.5786 20.3938 21.076 21.6816 17.742 22.0586C18.2791 22.5312 18.7576 23.4579 18.7576 24.8786C18.7576 26.9159 18.7402 28.5558 18.7402 29.0576C18.7402 29.4628 19.0097 29.9377 19.7687 29.7881C25.7144 27.7723 29.9989 22.0662 29.9989 15.3403C29.9989 6.92987 23.2955 0.112427 15.0269 0.112427Z" fill="white"/>
<path fill-rule="evenodd" clip-rule="evenodd" d="M5.72543 21.9764C5.69246 22.0523 5.57543 22.0747 5.46882 22.0228C5.36022 21.9731 5.29923 21.87 5.33444 21.7941C5.36667 21.7162 5.48394 21.6947 5.59229 21.7464C5.70113 21.7963 5.76312 21.9005 5.72543 21.9764Z" fill="white"/>
<path fill-rule="evenodd" clip-rule="evenodd" d="M6.33188 22.6643C6.26047 22.7317 6.12089 22.7004 6.02618 22.594C5.92824 22.4878 5.90989 22.3458 5.98229 22.2775C6.05593 22.2102 6.1913 22.2417 6.28948 22.3478C6.38741 22.4553 6.40651 22.5962 6.33188 22.6643Z" fill="white"/>
<path fill-rule="evenodd" clip-rule="evenodd" d="M6.92221 23.5414C6.83047 23.6062 6.68047 23.5454 6.58775 23.41C6.49601 23.2746 6.49601 23.1122 6.58973 23.0471C6.6827 22.9821 6.83047 23.0406 6.92444 23.175C7.01593 23.3124 7.01593 23.4751 6.92221 23.5414Z" fill="white"/>
<path fill-rule="evenodd" clip-rule="evenodd" d="M7.73097 24.3887C7.6489 24.4807 7.47411 24.456 7.34618 24.3304C7.21527 24.2076 7.17882 24.0334 7.26113 23.9413C7.34419 23.849 7.51998 23.875 7.6489 23.9996C7.77882 24.1221 7.81849 24.2976 7.73097 24.3887Z" fill="white"/>
<path fill-rule="evenodd" clip-rule="evenodd" d="M8.84667 24.8806C8.81047 24.9999 8.64213 25.0541 8.47254 25.0035C8.3032 24.9513 8.19237 24.8116 8.22659 24.691C8.2618 24.571 8.43089 24.5145 8.60171 24.5687C8.7708 24.6207 8.88188 24.7594 8.84667 24.8806Z" fill="white"/>
<path fill-rule="evenodd" clip-rule="evenodd" d="M10.072 24.9719C10.0762 25.0975 9.93237 25.2017 9.75436 25.2037C9.57535 25.208 9.43056 25.1063 9.42857 24.9828C9.42857 24.8559 9.56915 24.7528 9.74816 24.7498C9.92618 24.7462 10.072 24.8471 10.072 24.9719Z" fill="white"/>
<path fill-rule="evenodd" clip-rule="evenodd" d="M11.2122 24.7745C11.2335 24.897 11.1098 25.0229 10.933 25.0562C10.7592 25.0887 10.5983 25.013 10.5763 24.8915C10.5547 24.7659 10.6806 24.6401 10.8542 24.6075C11.0312 24.5763 11.1896 24.6499 11.2122 24.7745Z" fill="white"/>
</svg>
